<svg xmlns="http://www.w3.org/2000/svg" version="1.1" xmlns:xlink="http://www.w3.org/1999/xlink" xmlns:svgjs="http://svgjs.dev/svgjs" width="2000" height="2250" viewBox="0 0 2000 2250"><g transform="matrix(1,0,0,1,0,0)"><svg viewBox="0 0 320 360" data-background-color="#ffffff" preserveAspectRatio="xMidYMid meet" height="2250" width="2000" xmlns="http://www.w3.org/2000/svg" xmlns:xlink="http://www.w3.org/1999/xlink"><g id="tight-bounds" transform="matrix(1,0,0,1,0,0)"><svg viewBox="0 0 320 360" height="360" width="320"><g><svg></svg></g><g><svg viewBox="0 0 320 360" height="360" width="320"><g><path d="M297.491 100.645c-12.426-21.51-112.674-79.355-137.491-79.355-24.817 0-125.028 57.845-137.491 79.355-11.591 20.02-11.591 138.726 0 158.746 12.463 21.474 112.674 79.319 137.491 79.319 24.817 0 125.064-57.845 137.491-79.355 11.591-20.02 11.591-138.69 0-158.71zM309.481 93.705c-14.461-24.998-119.469-86.295-149.481-86.295-30.012 0-135.02 61.297-149.481 86.295-14.025 24.199-14.025 148.391 0 172.59 14.461 24.998 119.469 86.295 149.481 86.295 30.012 0 135.02-61.297 149.481-86.259 14.025-24.235 14.025-148.427 0-172.626zM300.906 261.353c-12.753 22.055-115.472 81.317-140.906 81.318-25.434 0-128.153-59.298-140.906-81.354-11.881-20.529-11.881-142.178 0-162.707 12.753-22.019 115.472-81.281 140.906-81.281 25.434 0 128.153 59.298 140.906 81.318 11.881 20.529 11.881 142.178 0 162.706z" fill="#ed2647" fill-rule="nonzero" stroke="none" stroke-width="1" stroke-linecap="butt" stroke-linejoin="miter" stroke-miterlimit="10" stroke-dasharray="" stroke-dashoffset="0" font-family="none" font-weight="none" font-size="none" text-anchor="none" style="mix-blend-mode: normal" data-fill-palette-color="tertiary"></path></g><g transform="matrix(1,0,0,1,48.000000000000014,128.04502773791197)"><svg viewBox="0 0 223.99999999999997 103.90994452417607" height="103.90994452417607" width="223.99999999999997"><g><svg viewBox="0 0 223.99999999999997 103.90994452417607" height="103.90994452417607" width="223.99999999999997"><g><svg viewBox="0 0 223.99999999999997 103.90994452417607" height="103.90994452417607" width="223.99999999999997"><g><svg viewBox="0 0 223.99999999999997 103.90994452417607" height="103.90994452417607" width="223.99999999999997"><g><svg viewBox="0 0 223.99999999999997 75.4310344827586" height="75.4310344827586" width="223.99999999999997"><g transform="matrix(1,0,0,1,0,0)"><svg width="223.99999999999997" viewBox="-12.5 -31.25 92.8 31.25" height="75.4310344827586" data-palette-color="#ffffff"><path d="M15.7-31.25L29-31.25Q35.45-31.25 38.18-28.98 40.9-26.7 40.9-21.6L40.9-21.6Q40.9-19 40.3-15.6L40.3-15.6Q38.8-7.2 35.18-3.6 31.55 0 23.5 0L23.5 0 10.2 0 15.7-31.25ZM27.7-23.25L27.7-23.25 23.75-23.25 21.1-8 25.05-8Q27-8 27.95-8.47 28.9-8.95 29.2-10.65L29.2-10.65 30.95-20.6Q31-20.9 31-21.4L31-21.4Q31-22.55 30.2-22.9 29.4-23.25 27.7-23.25ZM9.1-2.4L8.7-0.15-12.5-2.4 9.1-2.4ZM10.8-12.05L10.4-9.8-10.8-12.05 10.8-12.05ZM11.65-16.85L11.25-14.6-9.95-16.85 11.65-16.85ZM12.5-21.65L12.1-19.4-9.1-21.65 12.5-21.65ZM13.3-26.45L12.95-24.2-8.25-26.45 13.3-26.45ZM9.95-7.25L9.55-5-11.65-7.25 9.95-7.25ZM14.15-31.25L13.75-29-7.4-31.25 14.15-31.25ZM80.3-31.25L78.85-23.25 71.95-23.25 67.9 0 58.4 0 62.45-23.25 55.6-23.25 57.05-31.25 80.3-31.25ZM57.25-2.4L56.85-0.15 35.65-2.4 57.25-2.4ZM58.95-12.05L58.55-9.8 37.35-12.05 58.95-12.05ZM59.8-16.85L59.4-14.6 38.2-16.85 59.8-16.85ZM60.65-21.65L60.25-19.4 39.05-21.65 60.65-21.65ZM58.1-7.25L57.7-5 36.5-7.25 58.1-7.25ZM54.6-26.45L54.25-24.2 33.05-26.45 54.6-26.45ZM55.45-31.25L55.05-29 33.9-31.25 55.45-31.25Z" opacity="1" transform="matrix(1,0,0,1,0,0)" fill="#ffffff" class="undefined-text-0" data-fill-palette-color="quaternary" id="text-0"></path></svg></g></svg></g><g transform="matrix(1,0,0,1,0,93.23849137931032)"><svg viewBox="0 0 223.99999999999997 10.671453144865753" height="10.671453144865753" width="223.99999999999997"><g transform="matrix(1,0,0,1,0,0)"><svg width="223.99999999999997" viewBox="-12.5 -31.25 668.55 31.85" height="10.671453144865753" data-palette-color="#ffffff"><path d="M15.7-31.25L29-31.25Q35.45-31.25 38.18-28.98 40.9-26.7 40.9-21.6L40.9-21.6Q40.9-19 40.3-15.6L40.3-15.6Q38.8-7.2 35.18-3.6 31.55 0 23.5 0L23.5 0 10.2 0 15.7-31.25ZM27.7-23.25L27.7-23.25 23.75-23.25 21.1-8 25.05-8Q27-8 27.95-8.47 28.9-8.95 29.2-10.65L29.2-10.65 30.95-20.6Q31-20.9 31-21.4L31-21.4Q31-22.55 30.2-22.9 29.4-23.25 27.7-23.25ZM9.1-2.4L8.7-0.15-12.5-2.4 9.1-2.4ZM10.8-12.05L10.4-9.8-10.8-12.05 10.8-12.05ZM11.65-16.85L11.25-14.6-9.95-16.85 11.65-16.85ZM12.5-21.65L12.1-19.4-9.1-21.65 12.5-21.65ZM13.3-26.45L12.95-24.2-8.25-26.45 13.3-26.45ZM9.95-7.25L9.55-5-11.65-7.25 9.95-7.25ZM14.15-31.25L13.75-29-7.4-31.25 14.15-31.25ZM70.85-15.55L70-10.75 62.55-10.75 61.95-7.35 71.2-7.35 69.9 0 52.25 0 56.85-26.45 74.45-26.45 72.1-18.95 63.95-18.95 63.35-15.55 70.85-15.55ZM51-2.4L50.6-0.15 29.4-2.4 51-2.4ZM52.7-12.05L52.3-9.8 31.1-12.05 52.7-12.05ZM53.55-16.85L53.15-14.6 31.95-16.85 53.55-16.85ZM54.4-21.65L54-19.4 32.8-21.65 54.4-21.65ZM55.2-26.45L54.85-24.2 33.65-26.45 55.2-26.45ZM51.85-7.25L51.45-5 30.25-7.25 51.85-7.25ZM88.55-26.45L97.8-26.45 97.8-11.35 98-11.35 103.8-26.45 112.85-26.45 102.15 0 90 0 88.55-26.45ZM88.35-0.15L67.3-2.4 88.2-2.4 88.35-0.15ZM88.05-5L67-7.25 87.95-7.25 88.05-5ZM87.05-24.2L65.85-26.45 86.9-26.45 87.05-24.2ZM87.3-19.4L66.15-21.65 87.2-21.65 87.3-19.4ZM87.55-14.6L66.45-16.85 87.4-16.85 87.55-14.6ZM87.8-9.8L66.75-12.05 87.65-12.05 87.8-9.8ZM139.9-15.55L139.05-10.75 131.6-10.75 131-7.35 140.25-7.35 138.95 0 121.3 0 125.9-26.45 143.5-26.45 141.15-18.95 133-18.95 132.4-15.55 139.9-15.55ZM120.05-2.4L119.65-0.15 98.45-2.4 120.05-2.4ZM121.75-12.05L121.35-9.8 100.15-12.05 121.75-12.05ZM122.6-16.85L122.2-14.6 101-16.85 122.6-16.85ZM123.45-21.65L123.05-19.4 101.85-21.65 123.45-21.65ZM124.25-26.45L123.9-24.2 102.7-26.45 124.25-26.45ZM120.9-7.25L120.5-5 99.3-7.25 120.9-7.25ZM171.65-7.35L170.35 0 154.1 0 158.7-26.45 167.5-26.45 164.15-7.35 171.65-7.35ZM152.85-2.4L152.45-0.15 131.25-2.4 152.85-2.4ZM154.55-12.05L154.15-9.8 132.95-12.05 154.55-12.05ZM155.4-16.85L155-14.6 133.8-16.85 155.4-16.85ZM156.25-21.65L155.85-19.4 134.65-21.65 156.25-21.65ZM157.05-26.45L156.7-24.2 135.5-26.45 157.05-26.45ZM153.7-7.25L153.3-5 132.1-7.25 153.7-7.25ZM197.7-26.95L197.7-26.95Q203.1-26.95 205.4-24.88 207.7-22.8 207.7-18.4L207.7-18.4Q207.7-16.25 207.15-13.2L207.15-13.2Q205.9-6 202.75-2.7 199.6 0.6 192.85 0.6L192.85 0.6Q187.55 0.6 185.3-1.48 183.05-3.55 183.05-7.9L183.05-7.9Q183.05-10.15 183.6-13.2L183.6-13.2Q184.85-20.4 187.95-23.68 191.05-26.95 197.7-26.95ZM191.35-7L194.3-7Q195.75-7 196.48-7.35 197.2-7.7 197.45-8.9L197.45-8.9 199.35-19.35 196.3-19.35Q194.9-19.35 194.13-19 193.35-18.65 193.2-17.5L193.2-17.5 191.35-7ZM161.9-12.05L181.85-12.05Q181.65-10.5 181.6-9.95L181.6-9.95 161.9-12.05ZM162.8-16.85L182.8-16.85 182.35-14.75 162.8-16.85ZM162.1-7.25L181.55-7.25Q181.55-6.45 181.75-5.15L181.75-5.15 162.1-7.25ZM164.8-21.65L184.55-21.65Q183.95-20.35 183.7-19.65L183.7-19.65 164.8-21.65ZM166.45-2.4L182.6-2.4Q183.2-1.2 183.9-0.55L183.9-0.55 166.45-2.4ZM171.5-26.45L188.9-26.45Q187.7-25.75 186.85-24.8L186.85-24.8 171.5-26.45ZM234.75-6.2L234.75-6.2 229.9-6.2 228.8 0 220.4 0 225-26.45 237.7-26.45Q244.95-26.45 244.95-19.6L244.95-19.6Q244.95-16.5 244.05-13.9 243.15-11.3 242.1-9.8 241.05-8.3 239.13-7.25 237.2-6.2 234.75-6.2ZM235.25-14.4L235.85-17.8Q235.85-17.85 235.9-18.1L235.9-18.1Q235.9-19.15 233.75-19.15L233.75-19.15 232.15-19.15 231.1-12.95 232.65-12.95Q233.8-12.95 234.45-13.23 235.1-13.5 235.25-14.4L235.25-14.4ZM219.15-2.4L218.75-0.15 197.55-2.4 219.15-2.4ZM220.85-12.05L220.45-9.8 199.25-12.05 220.85-12.05ZM221.7-16.85L221.3-14.6 200.1-16.85 221.7-16.85ZM222.55-21.65L222.15-19.4 200.95-21.65 222.55-21.65ZM223.35-26.45L223-24.2 201.8-26.45 223.35-26.45ZM220-7.25L219.6-5 198.4-7.25 220-7.25ZM270.65-31.25L283.95-31.25Q290.4-31.25 293.13-28.98 295.85-26.7 295.85-21.6L295.85-21.6Q295.85-19 295.25-15.6L295.25-15.6Q293.75-7.2 290.13-3.6 286.5 0 278.45 0L278.45 0 265.15 0 270.65-31.25ZM282.65-23.25L282.65-23.25 278.7-23.25 276.05-8 280-8Q281.95-8 282.9-8.47 283.85-8.95 284.15-10.65L284.15-10.65 285.9-20.6Q285.95-20.9 285.95-21.4L285.95-21.4Q285.95-22.55 285.15-22.9 284.35-23.25 282.65-23.25ZM264.05-2.4L263.65-0.15 242.45-2.4 264.05-2.4ZM265.75-12.05L265.35-9.8 244.15-12.05 265.75-12.05ZM266.6-16.85L266.2-14.6 245-16.85 266.6-16.85ZM267.45-21.65L267.05-19.4 245.85-21.65 267.45-21.65ZM268.25-26.45L267.9-24.2 246.7-26.45 268.25-26.45ZM264.9-7.25L264.5-5 243.3-7.25 264.9-7.25ZM269.1-31.25L268.7-29 247.55-31.25 269.1-31.25ZM325.8-15.55L324.95-10.75 317.5-10.75 316.9-7.35 326.15-7.35 324.85 0 307.2 0 311.8-26.45 329.4-26.45 327.05-18.95 318.9-18.95 318.3-15.55 325.8-15.55ZM305.95-2.4L305.55-0.15 284.35-2.4 305.95-2.4ZM307.65-12.05L307.25-9.8 286.05-12.05 307.65-12.05ZM308.5-16.85L308.1-14.6 286.9-16.85 308.5-16.85ZM309.35-21.65L308.95-19.4 287.75-21.65 309.35-21.65ZM310.15-26.45L309.8-24.2 288.6-26.45 310.15-26.45ZM306.8-7.25L306.4-5 285.2-7.25 306.8-7.25ZM344.6-26.45L358.1-26.45Q363.8-26.45 363.8-21.75L363.8-21.75Q363.8-19.15 362.58-17.05 361.35-14.95 359.6-14.15L359.6-14.15 359.55-13.85Q362.85-12.8 362.85-9.3L362.85-9.3Q362.85-4.9 360.48-2.45 358.1 0 353.3 0L353.3 0 340 0 344.6-26.45ZM353.3-10.25L353.3-10.25 350.2-10.25 349.55-6.55 352.65-6.55Q354.4-6.55 354.4-9.1L354.4-9.1Q354.4-10.25 353.3-10.25ZM354.6-20.1L354.6-20.1 351.9-20.1 351.35-16.9 354.1-16.9Q355.6-16.9 355.6-19.1L355.6-19.1Q355.6-20.1 354.6-20.1ZM338.8-2.4L338.4-0.15 317.2-2.4 338.8-2.4ZM340.5-12.05L340.1-9.8 318.9-12.05 340.5-12.05ZM341.35-16.85L340.95-14.6 319.75-16.85 341.35-16.85ZM342.2-21.65L341.8-19.4 320.6-21.65 342.2-21.65ZM343-26.45L342.65-24.2 321.45-26.45 343-26.45ZM339.65-7.25L339.25-5 318.05-7.25 339.65-7.25ZM376.15-12.05L375.75-9.8 354.55-12.05 376.15-12.05ZM377-16.85L376.6-14.6 355.4-16.85 377-16.85ZM377.85-21.65L377.45-19.4 356.25-21.65 377.85-21.65ZM378.65-26.45L378.3-24.2 357.1-26.45 378.65-26.45ZM354.4-7.25L375.55-7.25 375.55-6.25Q375.55-5.4 375.6-5L375.6-5 354.4-7.25ZM377.5-0.15L377.5-0.15 356.3-2.4 376.05-2.4Q376.6-1 377.5-0.15ZM385.25-7L387.75-7Q389.1-7 389.63-7.33 390.15-7.65 390.35-8.9L390.35-8.9 393.5-26.45 401.9-26.45 399.3-11.55Q398.1-4.55 395.43-1.98 392.75 0.6 386.3 0.6L386.3 0.6Q381.15 0.6 379.1-0.93 377.05-2.45 377.05-6.25L377.05-6.25Q377.05-8.35 377.6-11.55L377.6-11.55 380.25-26.45 388.65-26.45 385.25-7ZM434.6-15.55L432.1-1.4Q427 0.6 421.7 0.6 416.4 0.6 414.15-1.48 411.9-3.55 411.9-7.9L411.9-7.9Q411.9-10.05 412.6-14.05 413.3-18.05 414.75-20.9L414.75-20.9Q417.9-26.95 427.5-26.95L427.5-26.95Q433.1-26.95 435.3-25.85L435.3-25.85 432.75-18.9Q429.6-19.6 427.08-19.6 424.55-19.6 423.5-19.25 422.45-18.9 422.25-17.9L422.25-17.9 420.15-6.4 422.45-6.4Q423.7-6.4 424.38-6.68 425.05-6.95 425.2-7.9L425.2-7.9 425.55-9.85 423.5-9.85 424.5-15.55 434.6-15.55ZM390.75-12.05L410.7-12.05Q410.5-10.5 410.45-9.95L410.45-9.95 390.75-12.05ZM391.65-16.85L411.65-16.85 411.2-14.75 391.65-16.85ZM390.95-7.25L410.4-7.25Q410.4-6.45 410.6-5.15L410.6-5.15 390.95-7.25ZM393.65-21.65L413.4-21.65Q412.8-20.35 412.55-19.65L412.55-19.65 393.65-21.65ZM395.3-2.4L411.45-2.4Q412.05-1.2 412.75-0.55L412.75-0.55 395.3-2.4ZM400.35-26.45L417.75-26.45Q416.55-25.75 415.7-24.8L415.7-24.8 400.35-26.45ZM462.35-31.25L475.65-31.25Q482.1-31.25 484.83-28.98 487.55-26.7 487.55-21.6L487.55-21.6Q487.55-19 486.95-15.6L486.95-15.6Q485.45-7.2 481.83-3.6 478.2 0 470.15 0L470.15 0 456.85 0 462.35-31.25ZM474.35-23.25L474.35-23.25 470.4-23.25 467.75-8 471.7-8Q473.65-8 474.6-8.47 475.55-8.95 475.85-10.65L475.85-10.65 477.6-20.6Q477.65-20.9 477.65-21.4L477.65-21.4Q477.65-22.55 476.85-22.9 476.05-23.25 474.35-23.25ZM455.75-2.4L455.35-0.15 434.15-2.4 455.75-2.4ZM457.45-12.05L457.05-9.8 435.85-12.05 457.45-12.05ZM458.3-16.85L457.9-14.6 436.7-16.85 458.3-16.85ZM459.15-21.65L458.75-19.4 437.55-21.65 459.15-21.65ZM459.95-26.45L459.6-24.2 438.4-26.45 459.95-26.45ZM456.6-7.25L456.2-5 435-7.25 456.6-7.25ZM460.8-31.25L460.4-29 439.25-31.25 460.8-31.25ZM517.5-15.55L516.65-10.75 509.2-10.75 508.6-7.35 517.85-7.35 516.55 0 498.9 0 503.5-26.45 521.1-26.45 518.75-18.95 510.6-18.95 510-15.55 517.5-15.55ZM497.65-2.4L497.25-0.15 476.05-2.4 497.65-2.4ZM499.35-12.05L498.95-9.8 477.75-12.05 499.35-12.05ZM500.2-16.85L499.8-14.6 478.6-16.85 500.2-16.85ZM501.05-21.65L500.65-19.4 479.45-21.65 501.05-21.65ZM501.85-26.45L501.5-24.2 480.3-26.45 501.85-26.45ZM498.5-7.25L498.1-5 476.9-7.25 498.5-7.25ZM546.05-6.2L546.05-6.2 541.2-6.2 540.1 0 531.7 0 536.3-26.45 549-26.45Q556.25-26.45 556.25-19.6L556.25-19.6Q556.25-16.5 555.35-13.9 554.45-11.3 553.4-9.8 552.35-8.3 550.43-7.25 548.5-6.2 546.05-6.2ZM546.55-14.4L547.15-17.8Q547.15-17.85 547.2-18.1L547.2-18.1Q547.2-19.15 545.05-19.15L545.05-19.15 543.45-19.15 542.4-12.95 543.95-12.95Q545.1-12.95 545.75-13.23 546.4-13.5 546.55-14.4L546.55-14.4ZM530.45-2.4L530.05-0.15 508.85-2.4 530.45-2.4ZM532.15-12.05L531.75-9.8 510.55-12.05 532.15-12.05ZM533-16.85L532.6-14.6 511.4-16.85 533-16.85ZM533.85-21.65L533.45-19.4 512.25-21.65 533.85-21.65ZM534.65-26.45L534.3-24.2 513.1-26.45 534.65-26.45ZM531.3-7.25L530.9-5 509.7-7.25 531.3-7.25ZM584-7.35L582.7 0 566.45 0 571.05-26.45 579.85-26.45 576.5-7.35 584-7.35ZM565.2-2.4L564.8-0.15 543.6-2.4 565.2-2.4ZM566.9-12.05L566.5-9.8 545.3-12.05 566.9-12.05ZM567.75-16.85L567.35-14.6 546.15-16.85 567.75-16.85ZM568.6-21.65L568.2-19.4 547-21.65 568.6-21.65ZM569.4-26.45L569.05-24.2 547.85-26.45 569.4-26.45ZM566.05-7.25L565.65-5 544.45-7.25 566.05-7.25ZM610.05-26.95L610.05-26.95Q615.45-26.95 617.75-24.88 620.05-22.8 620.05-18.4L620.05-18.4Q620.05-16.25 619.5-13.2L619.5-13.2Q618.25-6 615.1-2.7 611.95 0.6 605.2 0.6L605.2 0.6Q599.9 0.6 597.65-1.48 595.4-3.55 595.4-7.9L595.4-7.9Q595.4-10.15 595.95-13.2L595.95-13.2Q597.2-20.4 600.3-23.68 603.4-26.95 610.05-26.95ZM603.7-7L606.65-7Q608.1-7 608.83-7.35 609.55-7.7 609.8-8.9L609.8-8.9 611.7-19.35 608.65-19.35Q607.25-19.35 606.48-19 605.7-18.65 605.55-17.5L605.55-17.5 603.7-7ZM574.25-12.05L594.2-12.05Q594-10.5 593.95-9.95L593.95-9.95 574.25-12.05ZM575.15-16.85L595.15-16.85 594.7-14.75 575.15-16.85ZM574.45-7.25L593.9-7.25Q593.9-6.45 594.1-5.15L594.1-5.15 574.45-7.25ZM577.15-21.65L596.9-21.65Q596.3-20.35 596.05-19.65L596.05-19.65 577.15-21.65ZM578.8-2.4L594.95-2.4Q595.55-1.2 596.25-0.55L596.25-0.55 578.8-2.4ZM583.85-26.45L601.25-26.45Q600.05-25.75 599.2-24.8L599.2-24.8 583.85-26.45ZM634.65-2.4L634.25-0.15 613.05-2.4 634.65-2.4ZM635.5-7.25L635.1-5 613.9-7.25 635.5-7.25ZM632.65-21.65L633.1-19.4 611.9-21.65 632.65-21.65ZM631.65-26.45L632.1-24.2 610.9-26.45 631.65-26.45ZM633.65-16.85L634.1-14.6 612.9-16.85 633.65-16.85ZM634.6-12.05L635.1-9.8 613.9-12.05 634.6-12.05ZM633.15-26.45L641.75-26.45 642.85-16.85 643.15-16.85 647.3-26.45 656.05-26.45 645.45-7.55 644.2 0 635.75 0 637.05-7.55 633.15-26.45Z" opacity="1" transform="matrix(1,0,0,1,0,0)" fill="#ffffff" class="undefined-text-1" data-fill-palette-color="quaternary" id="text-1"></path></svg></g></svg></g></svg></g></svg></g><g></g></svg></g></svg></g></svg></g><defs></defs></svg><rect width="320" height="360" fill="none" stroke="none" visibility="hidden"></rect></g></svg></g></svg>